<svg width="42" height="39" viewBox="0 0 42 39" fill="none" xmlns="http://www.w3.org/2000/svg">
<path d="M20.8333 38.2292L17.8125 35.4792C7.08333 25.75 0 19.3125 0 11.4583C0 5.02083 5.04167 0 11.4583 0C15.0833 0 18.5625 1.6875 20.8333 4.33333C23.1042 1.6875 26.5833 0 30.2083 0C36.625 0 41.6667 5.02083 41.6667 11.4583C41.6667 19.3125 34.5833 25.75 23.8542 35.4792L20.8333 38.2292Z" fill="#D9D9D9"/>
<path d="M21.2087 32.6458L21.0003 32.8542L20.7712 32.6458C10.8753 23.6667 4.33366 17.7292 4.33366 11.7083C4.33366 7.54167 7.45866 4.41667 11.6253 4.41667C14.8337 4.41667 17.9587 6.5 19.0628 9.33333H22.9378C24.042 6.5 27.167 4.41667 30.3753 4.41667C34.542 4.41667 37.667 7.54167 37.667 11.7083C37.667 17.7292 31.1253 23.6667 21.2087 32.6458ZM30.3753 0.25C26.7503 0.25 23.2712 1.9375 21.0003 4.58333C18.7295 1.9375 15.2503 0.25 11.6253 0.25C5.20866 0.25 0.166992 5.27083 0.166992 11.7083C0.166992 19.5625 7.25033 26 17.9795 35.7292L21.0003 38.4792L24.0212 35.7292C34.7503 26 41.8337 19.5625 41.8337 11.7083C41.8337 5.27083 36.792 0.25 30.3753 0.25Z" fill="black"/>
</svg>
