<svg width="142" height="63" viewBox="0 0 142 63" fill="none" xmlns="http://www.w3.org/2000/svg">
<path d="M25.1038 38C24.8104 37.04 24.4771 36.0533 24.1038 35.04C23.7571 34.0267 23.4104 33.0133 23.0638 32H12.2638C11.9171 33.0133 11.5571 34.0267 11.1838 35.04C10.8371 36.0533 10.5171 37.04 10.2238 38H3.74375C4.78375 35.0133 5.77042 32.2533 6.70375 29.72C7.63708 27.1867 8.54375 24.8 9.42375 22.56C10.3304 20.32 11.2104 18.2 12.0638 16.2C12.9438 14.1733 13.8504 12.2 14.7838 10.28H20.7438C21.6504 12.2 22.5438 14.1733 23.4238 16.2C24.3038 18.2 25.1838 20.32 26.0638 22.56C26.9704 24.8 27.8904 27.1867 28.8238 29.72C29.7571 32.2533 30.7438 35.0133 31.7838 38H25.1038ZM17.6238 16.56C17.4904 16.96 17.2904 17.5067 17.0238 18.2C16.7571 18.8933 16.4504 19.6933 16.1038 20.6C15.7571 21.5067 15.3704 22.5067 14.9438 23.6C14.5438 24.6933 14.1304 25.84 13.7038 27.04H21.5838C21.1571 25.84 20.7438 24.6933 20.3438 23.6C19.9438 22.5067 19.5571 21.5067 19.1838 20.6C18.8371 19.6933 18.5304 18.8933 18.2638 18.2C17.9971 17.5067 17.7838 16.96 17.6238 16.56ZM53.8919 32.64V38H35.3719V10.28H41.6119V32.64H53.8919ZM66.2309 9.96C70.3643 9.96 73.5376 10.6933 75.7509 12.16C77.9643 13.6 79.0709 15.9733 79.0709 19.28C79.0709 22.6133 77.9509 25.0267 75.7109 26.52C73.4709 27.9867 70.2709 28.72 66.1109 28.72H64.1509V38H57.9109V10.68C59.2709 10.4133 60.7109 10.2267 62.2309 10.12C63.7509 10.0133 65.0843 9.96 66.2309 9.96ZM66.6309 15.28C66.1776 15.28 65.7243 15.2933 65.2709 15.32C64.8443 15.3467 64.4709 15.3733 64.1509 15.4V23.4H66.1109C68.2709 23.4 69.8976 23.1067 70.9909 22.52C72.0843 21.9333 72.6309 20.84 72.6309 19.24C72.6309 18.4667 72.4843 17.8267 72.1909 17.32C71.9243 16.8133 71.5243 16.4133 70.9909 16.12C70.4843 15.8 69.8576 15.5867 69.1109 15.48C68.3643 15.3467 67.5376 15.28 66.6309 15.28ZM100.373 10.28H106.613V38H100.373V26.24H89.8931V38H83.6531V10.28H89.8931V20.88H100.373V10.28ZM131.588 38C131.295 37.04 130.961 36.0533 130.588 35.04C130.241 34.0267 129.895 33.0133 129.548 32H118.748C118.401 33.0133 118.041 34.0267 117.668 35.04C117.321 36.0533 117.001 37.04 116.708 38H110.228C111.268 35.0133 112.255 32.2533 113.188 29.72C114.121 27.1867 115.028 24.8 115.908 22.56C116.815 20.32 117.695 18.2 118.548 16.2C119.428 14.1733 120.335 12.2 121.268 10.28H127.228C128.135 12.2 129.028 14.1733 129.908 16.2C130.788 18.2 131.668 20.32 132.548 22.56C133.455 24.8 134.375 27.1867 135.308 29.72C136.241 32.2533 137.228 35.0133 138.268 38H131.588ZM124.108 16.56C123.975 16.96 123.775 17.5067 123.508 18.2C123.241 18.8933 122.935 19.6933 122.588 20.6C122.241 21.5067 121.855 22.5067 121.428 23.6C121.028 24.6933 120.615 25.84 120.188 27.04H128.068C127.641 25.84 127.228 24.6933 126.828 23.6C126.428 22.5067 126.041 21.5067 125.668 20.6C125.321 19.6933 125.015 18.8933 124.748 18.2C124.481 17.5067 124.268 16.96 124.108 16.56Z" fill="#656563" fill-opacity="0.5"/>
<path d="M3.985 59L8.74 48.5H10.225L14.995 59H13.42L9.175 49.34H9.775L5.53 59H3.985ZM6.01 56.375L6.415 55.175H12.325L12.76 56.375H6.01ZM17.1013 59V47.87H18.5413V59H17.1013ZM26.2558 59.09C25.5958 59.09 24.9908 58.94 24.4408 58.64C23.9008 58.33 23.4658 57.875 23.1358 57.275C22.8158 56.675 22.6558 55.925 22.6558 55.025C22.6558 54.125 22.8108 53.375 23.1208 52.775C23.4408 52.175 23.8708 51.725 24.4108 51.425C24.9608 51.125 25.5758 50.975 26.2558 50.975C27.0358 50.975 27.7258 51.145 28.3258 51.485C28.9258 51.825 29.4008 52.3 29.7508 52.91C30.1008 53.51 30.2758 54.215 30.2758 55.025C30.2758 55.835 30.1008 56.545 29.7508 57.155C29.4008 57.765 28.9258 58.24 28.3258 58.58C27.7258 58.92 27.0358 59.09 26.2558 59.09ZM22.0408 61.91V51.05H23.4208V53.195L23.3308 55.04L23.4808 56.885V61.91H22.0408ZM26.1358 57.83C26.6458 57.83 27.1008 57.715 27.5008 57.485C27.9108 57.255 28.2308 56.93 28.4608 56.51C28.7008 56.08 28.8208 55.585 28.8208 55.025C28.8208 54.455 28.7008 53.965 28.4608 53.555C28.2308 53.135 27.9108 52.81 27.5008 52.58C27.1008 52.35 26.6458 52.235 26.1358 52.235C25.6358 52.235 25.1808 52.35 24.7708 52.58C24.3708 52.81 24.0508 53.135 23.8108 53.555C23.5808 53.965 23.4658 54.455 23.4658 55.025C23.4658 55.585 23.5808 56.08 23.8108 56.51C24.0508 56.93 24.3708 57.255 24.7708 57.485C25.1808 57.715 25.6358 57.83 26.1358 57.83ZM37.2604 50.975C37.9104 50.975 38.4804 51.1 38.9704 51.35C39.4704 51.6 39.8604 51.98 40.1404 52.49C40.4204 53 40.5604 53.645 40.5604 54.425V59H39.1204V54.59C39.1204 53.82 38.9304 53.24 38.5504 52.85C38.1804 52.46 37.6554 52.265 36.9754 52.265C36.4654 52.265 36.0204 52.365 35.6404 52.565C35.2604 52.765 34.9654 53.06 34.7554 53.45C34.5554 53.84 34.4554 54.325 34.4554 54.905V59H33.0154V47.87H34.4554V53.195L34.1704 52.625C34.4304 52.105 34.8304 51.7 35.3704 51.41C35.9104 51.12 36.5404 50.975 37.2604 50.975ZM48.9104 59V57.32L48.8354 57.005V54.14C48.8354 53.53 48.6554 53.06 48.2954 52.73C47.9454 52.39 47.4154 52.22 46.7054 52.22C46.2354 52.22 45.7754 52.3 45.3254 52.46C44.8754 52.61 44.4954 52.815 44.1854 53.075L43.5854 51.995C43.9954 51.665 44.4854 51.415 45.0554 51.245C45.6354 51.065 46.2404 50.975 46.8704 50.975C47.9604 50.975 48.8004 51.24 49.3904 51.77C49.9804 52.3 50.2754 53.11 50.2754 54.2V59H48.9104ZM46.3004 59.09C45.7104 59.09 45.1904 58.99 44.7404 58.79C44.3004 58.59 43.9604 58.315 43.7204 57.965C43.4804 57.605 43.3604 57.2 43.3604 56.75C43.3604 56.32 43.4604 55.93 43.6604 55.58C43.8704 55.23 44.2054 54.95 44.6654 54.74C45.1354 54.53 45.7654 54.425 46.5554 54.425H49.0754V55.46H46.6154C45.8954 55.46 45.4104 55.58 45.1604 55.82C44.9104 56.06 44.7854 56.35 44.7854 56.69C44.7854 57.08 44.9404 57.395 45.2504 57.635C45.5604 57.865 45.9904 57.98 46.5404 57.98C47.0804 57.98 47.5504 57.86 47.9504 57.62C48.3604 57.38 48.6554 57.03 48.8354 56.57L49.1204 57.56C48.9304 58.03 48.5954 58.405 48.1154 58.685C47.6354 58.955 47.0304 59.09 46.3004 59.09ZM58.6785 59V48.5H59.9085L64.6185 56.435H63.9585L68.6085 48.5H69.8385L69.8535 59H68.4135L68.3985 50.765H68.7435L64.6035 57.725H63.9135L59.7435 50.765H60.1185V59H58.6785ZM77.0847 59.09C76.2347 59.09 75.4847 58.915 74.8347 58.565C74.1947 58.215 73.6947 57.735 73.3347 57.125C72.9847 56.515 72.8097 55.815 72.8097 55.025C72.8097 54.235 72.9797 53.535 73.3197 52.925C73.6697 52.315 74.1447 51.84 74.7447 51.5C75.3547 51.15 76.0397 50.975 76.7997 50.975C77.5697 50.975 78.2497 51.145 78.8397 51.485C79.4297 51.825 79.8897 52.305 80.2197 52.925C80.5597 53.535 80.7297 54.25 80.7297 55.07C80.7297 55.13 80.7247 55.2 80.7147 55.28C80.7147 55.36 80.7097 55.435 80.6997 55.505H73.9347V54.47H79.9497L79.3647 54.83C79.3747 54.32 79.2697 53.865 79.0497 53.465C78.8297 53.065 78.5247 52.755 78.1347 52.535C77.7547 52.305 77.3097 52.19 76.7997 52.19C76.2997 52.19 75.8547 52.305 75.4647 52.535C75.0747 52.755 74.7697 53.07 74.5497 53.48C74.3297 53.88 74.2197 54.34 74.2197 54.86V55.1C74.2197 55.63 74.3397 56.105 74.5797 56.525C74.8297 56.935 75.1747 57.255 75.6147 57.485C76.0547 57.715 76.5597 57.83 77.1297 57.83C77.5997 57.83 78.0247 57.75 78.4047 57.59C78.7947 57.43 79.1347 57.19 79.4247 56.87L80.2197 57.8C79.8597 58.22 79.4097 58.54 78.8697 58.76C78.3397 58.98 77.7447 59.09 77.0847 59.09ZM87.7243 50.975C88.3743 50.975 88.9443 51.1 89.4343 51.35C89.9343 51.6 90.3243 51.98 90.6043 52.49C90.8843 53 91.0243 53.645 91.0243 54.425V59H89.5843V54.59C89.5843 53.82 89.3943 53.24 89.0143 52.85C88.6443 52.46 88.1193 52.265 87.4393 52.265C86.9293 52.265 86.4843 52.365 86.1043 52.565C85.7243 52.765 85.4293 53.06 85.2193 53.45C85.0193 53.84 84.9193 54.325 84.9193 54.905V59H83.4793V51.05H84.8593V53.195L84.6343 52.625C84.8943 52.105 85.2943 51.7 85.8343 51.41C86.3743 51.12 87.0043 50.975 87.7243 50.975ZM102.488 59.12C101.688 59.12 100.923 59 100.193 58.76C99.4625 58.51 98.8875 58.19 98.4675 57.8L99.0225 56.63C99.4225 56.98 99.9325 57.27 100.553 57.5C101.173 57.73 101.818 57.845 102.488 57.845C103.098 57.845 103.593 57.775 103.973 57.635C104.353 57.495 104.633 57.305 104.813 57.065C104.993 56.815 105.083 56.535 105.083 56.225C105.083 55.865 104.963 55.575 104.723 55.355C104.493 55.135 104.188 54.96 103.808 54.83C103.438 54.69 103.028 54.57 102.578 54.47C102.128 54.37 101.673 54.255 101.213 54.125C100.763 53.985 100.348 53.81 99.9675 53.6C99.5975 53.39 99.2975 53.11 99.0675 52.76C98.8375 52.4 98.7225 51.94 98.7225 51.38C98.7225 50.84 98.8625 50.345 99.1425 49.895C99.4325 49.435 99.8725 49.07 100.463 48.8C101.063 48.52 101.823 48.38 102.743 48.38C103.353 48.38 103.958 48.46 104.558 48.62C105.158 48.78 105.678 49.01 106.118 49.31L105.623 50.51C105.173 50.21 104.698 49.995 104.198 49.865C103.698 49.725 103.213 49.655 102.743 49.655C102.153 49.655 101.668 49.73 101.288 49.88C100.908 50.03 100.628 50.23 100.448 50.48C100.278 50.73 100.193 51.01 100.193 51.32C100.193 51.69 100.308 51.985 100.538 52.205C100.778 52.425 101.083 52.6 101.453 52.73C101.833 52.86 102.248 52.98 102.698 53.09C103.148 53.19 103.598 53.305 104.048 53.435C104.508 53.565 104.923 53.735 105.293 53.945C105.673 54.155 105.978 54.435 106.208 54.785C106.438 55.135 106.553 55.585 106.553 56.135C106.553 56.665 106.408 57.16 106.118 57.62C105.828 58.07 105.378 58.435 104.768 58.715C104.168 58.985 103.408 59.12 102.488 59.12ZM112.014 59.09C111.214 59.09 110.594 58.875 110.154 58.445C109.714 58.015 109.494 57.4 109.494 56.6V49.31H110.934V56.54C110.934 56.97 111.039 57.3 111.249 57.53C111.469 57.76 111.779 57.875 112.179 57.875C112.629 57.875 113.004 57.75 113.304 57.5L113.754 58.535C113.534 58.725 113.269 58.865 112.959 58.955C112.659 59.045 112.344 59.09 112.014 59.09ZM108.144 52.235V51.05H113.214V52.235H108.144ZM116.443 62C116.063 62 115.693 61.935 115.333 61.805C114.973 61.685 114.663 61.505 114.403 61.265L115.018 60.185C115.218 60.375 115.438 60.52 115.678 60.62C115.918 60.72 116.173 60.77 116.443 60.77C116.793 60.77 117.083 60.68 117.313 60.5C117.543 60.32 117.758 60 117.958 59.54L118.453 58.445L118.603 58.265L121.723 51.05H123.133L119.278 59.795C119.048 60.355 118.788 60.795 118.498 61.115C118.218 61.435 117.908 61.66 117.568 61.79C117.228 61.93 116.853 62 116.443 62ZM118.333 59.255L114.703 51.05H116.203L119.293 58.13L118.333 59.255ZM125.227 59V47.87H126.667V59H125.227ZM133.707 59.09C132.857 59.09 132.107 58.915 131.457 58.565C130.817 58.215 130.317 57.735 129.957 57.125C129.607 56.515 129.432 55.815 129.432 55.025C129.432 54.235 129.602 53.535 129.942 52.925C130.292 52.315 130.767 51.84 131.367 51.5C131.977 51.15 132.662 50.975 133.422 50.975C134.192 50.975 134.872 51.145 135.462 51.485C136.052 51.825 136.512 52.305 136.842 52.925C137.182 53.535 137.352 54.25 137.352 55.07C137.352 55.13 137.347 55.2 137.337 55.28C137.337 55.36 137.332 55.435 137.322 55.505H130.557V54.47H136.572L135.987 54.83C135.997 54.32 135.892 53.865 135.672 53.465C135.452 53.065 135.147 52.755 134.757 52.535C134.377 52.305 133.932 52.19 133.422 52.19C132.922 52.19 132.477 52.305 132.087 52.535C131.697 52.755 131.392 53.07 131.172 53.48C130.952 53.88 130.842 54.34 130.842 54.86V55.1C130.842 55.63 130.962 56.105 131.202 56.525C131.452 56.935 131.797 57.255 132.237 57.485C132.677 57.715 133.182 57.83 133.752 57.83C134.222 57.83 134.647 57.75 135.027 57.59C135.417 57.43 135.757 57.19 136.047 56.87L136.842 57.8C136.482 58.22 136.032 58.54 135.492 58.76C134.962 58.98 134.367 59.09 133.707 59.09Z" fill="#A4A4A4"/>
</svg>
